<mxfile host="app.diagrams.net" modified="2023-05-31T13:27:36.424Z" agent="Mozilla/5.0 (Windows NT 10.0; Win64; x64) AppleWebKit/537.36 (KHTML, like Gecko) Chrome/113.0.0.0 Safari/537.36" etag="JO1kxVIFwTweGrgtU-E7" version="21.3.3" type="github">
  <diagram name="第 1 页" id="KtvbqaRSCcSbPuZ43bfZ">
    <mxGraphModel dx="1024" dy="389" grid="1" gridSize="10" guides="1" tooltips="1" connect="1" arrows="1" fold="1" page="1" pageScale="1" pageWidth="827" pageHeight="1169" math="0" shadow="0">
      <root>
        <mxCell id="0" />
        <mxCell id="1" parent="0" />
        <mxCell id="9heVZX1AaKrHKkOdZYMy-10" value="&lt;b&gt;&lt;font style=&quot;font-size: 13px;&quot;&gt;中科炼化云平台&lt;/font&gt;&lt;/b&gt;" style="rounded=1;whiteSpace=wrap;html=1;arcSize=7;horizontal=1;labelPosition=center;verticalLabelPosition=top;align=center;verticalAlign=bottom;dashed=1;" vertex="1" parent="1">
          <mxGeometry x="320" y="90" width="310" height="255" as="geometry" />
        </mxCell>
        <mxCell id="9heVZX1AaKrHKkOdZYMy-1" value="&lt;br&gt;&lt;br&gt;&lt;br&gt;&lt;br&gt;&lt;br&gt;&lt;br&gt;&lt;br&gt;API&lt;br&gt;安全网关" style="rounded=0;whiteSpace=wrap;html=1;" vertex="1" parent="1">
          <mxGeometry x="350" y="130" width="60" height="180" as="geometry" />
        </mxCell>
        <mxCell id="9heVZX1AaKrHKkOdZYMy-2" value="" style="sketch=0;html=1;dashed=0;whitespace=wrap;fillColor=#2875E2;strokeColor=#ffffff;points=[[0.005,0.63,0],[0.1,0.2,0],[0.9,0.2,0],[0.5,0,0],[0.995,0.63,0],[0.72,0.99,0],[0.5,1,0],[0.28,0.99,0]];verticalLabelPosition=bottom;align=center;verticalAlign=top;shape=mxgraph.kubernetes.icon;prIcon=api" vertex="1" parent="1">
          <mxGeometry x="355" y="196" width="50" height="48" as="geometry" />
        </mxCell>
        <mxCell id="9heVZX1AaKrHKkOdZYMy-3" value="" style="endArrow=classic;html=1;rounded=0;entryX=-0.064;entryY=0.22;entryDx=0;entryDy=0;entryPerimeter=0;" edge="1" parent="1" target="9heVZX1AaKrHKkOdZYMy-1">
          <mxGeometry width="50" height="50" relative="1" as="geometry">
            <mxPoint x="280" y="150" as="sourcePoint" />
            <mxPoint x="280" y="180" as="targetPoint" />
          </mxGeometry>
        </mxCell>
        <mxCell id="9heVZX1AaKrHKkOdZYMy-4" value="" style="endArrow=classic;html=1;rounded=0;entryX=-0.075;entryY=0.499;entryDx=0;entryDy=0;entryPerimeter=0;" edge="1" parent="1" target="9heVZX1AaKrHKkOdZYMy-1">
          <mxGeometry width="50" height="50" relative="1" as="geometry">
            <mxPoint x="280" y="220" as="sourcePoint" />
            <mxPoint x="356" y="180" as="targetPoint" />
          </mxGeometry>
        </mxCell>
        <mxCell id="9heVZX1AaKrHKkOdZYMy-5" value="" style="endArrow=classic;html=1;rounded=0;entryX=-0.053;entryY=0.799;entryDx=0;entryDy=0;entryPerimeter=0;" edge="1" parent="1" target="9heVZX1AaKrHKkOdZYMy-1">
          <mxGeometry width="50" height="50" relative="1" as="geometry">
            <mxPoint x="280" y="300" as="sourcePoint" />
            <mxPoint x="356" y="230" as="targetPoint" />
          </mxGeometry>
        </mxCell>
        <mxCell id="9heVZX1AaKrHKkOdZYMy-6" value="APP" style="image;aspect=fixed;html=1;points=[];align=center;fontSize=12;image=img/lib/azure2/integration/Logic_Apps.svg;" vertex="1" parent="1">
          <mxGeometry x="230" y="130" width="41.23" height="32" as="geometry" />
        </mxCell>
        <mxCell id="9heVZX1AaKrHKkOdZYMy-8" value="Servers" style="sketch=0;aspect=fixed;pointerEvents=1;shadow=0;dashed=0;html=1;strokeColor=none;labelPosition=center;verticalLabelPosition=bottom;verticalAlign=top;align=center;fillColor=#00188D;shape=mxgraph.azure.server_rack" vertex="1" parent="1">
          <mxGeometry x="230" y="196" width="41.23" height="41.23" as="geometry" />
        </mxCell>
        <mxCell id="9heVZX1AaKrHKkOdZYMy-9" value="Mobile" style="verticalLabelPosition=bottom;html=1;verticalAlign=top;align=center;strokeColor=none;fillColor=#00BEF2;shape=mxgraph.azure.mobile_services;pointerEvents=1;" vertex="1" parent="1">
          <mxGeometry x="237.8" y="280" width="25.63" height="40" as="geometry" />
        </mxCell>
      </root>
    </mxGraphModel>
  </diagram>
</mxfile>
